#!OML:ASF H:\Terrain\Patient Classification 1\Animal2\Wednesday\Animal2.ASF
:FULLY-SPECIFIED
:DEGREES
2832
root 21.1589 17.7543 -16.7418 182.1 -171.235 -179.693
lowerback 0.734489 -1.33052 1.79958
upperback -10.7133 -1.69277 0.266928
thorax -11.9427 -1.00002 -0.523829
lowerneck -4.53444 10.8913 16.7103
upperneck 14.5913 16.368 -17.9702
head 8.14848 7.68439 -7.05089
rclavicle 2.66371e-014 4.17448e-015
rhumerus -56.5726 -29.9701 0.990488
rradius 61.9666
rwrist -37.6021
rhand -9.43791 23.2207
rfingers 7.12502
rthumb 16.5249 -6.09566
lclavicle 2.66371e-014 4.17448e-015
lhumerus -38.4823 -2.34779 11.9154
lradius 47.5888
lwrist 72.8805
lhand -16.8521 14.5406
lfingers 7.12502
lthumb 9.37807 44.312
rfemur -6.15977 -5.43006 19.4624
rtibia 24.4255
rfoot -23.0656 -0.92588
rtoes 29.6438
lfemur -12.9198 -0.551389 -19.1765
ltibia 26.754
lfoot -17.1966 0.9082
ltoes -18.0625
2833
root 21.1584 17.758 -16.7405 182.098 -170.612 -179.667
lowerback 0.613177 -1.42586 1.50318
upperback -10.8232 -1.84308 0.326639
thorax -11.9862 -1.0426 -0.278446
lowerneck -4.67493 10.6927 16.368
upperneck 14.4239 15.9976 -17.6237
head 7.98557 7.50605 -6.92173
rclavicle 7.95139e-015 2.14687e-014
rhumerus -56.4145 -30.1659 -0.467715
rradius 60.5087
rwrist -37.0865
rhand -10.1576 22.8761
rfingers 7.12502
rthumb 15.8318 -6.49659
lclavicle 7.95139e-015 2.14687e-014
lhumerus -39.0064 -2.41695 13.7534
lradius 46.6027
lwrist 72.7671
lhand -17.6347 14.9253
lfingers 7.12502
lthumb 8.62288 44.7292
rfemur -6.25377 -5.47297 19.3511
rtibia 24.4683
rfoot -22.9216 -0.245831
rtoes 30.0924
lfemur -12.7583 -0.619148 -19.2271
ltibia 26.7115
lfoot -17.2346 1.59676
ltoes -17.6606
2834
root 21.1594 17.759 -16.7409 182.056 -169.935 -179.785
lowerback 0.547079 -1.5293 1.42514
upperback -10.9956 -1.98967 0.373789
thorax -12.1457 -1.10611 -0.165295
lowerneck -4.61109 10.4453 16.256
upperneck 14.4448 15.6153 -17.3843
head 7.87707 7.33604 -6.8821
rclavicle 2.38542e-015 -1.19271e-014
rhumerus -56.2278 -30.2874 -2.00417
rradius 58.8074
rwrist -36.3784
rhand -10.9096 22.6501
rfingers 7.12502
rthumb 15.1076 -6.77852
lclavicle 2.38542e-015 -1.19271e-014
lhumerus -39.5569 -2.38018 15.4267
lradius 45.3796
lwrist 72.4137
lhand -18.3091 15.3985
lfingers 7.12502
lthumb 7.97201 45.2282
rfemur -6.29737 -5.34234 19.4042
rtibia 24.4745
rfoot -22.8695 0.383886
rtoes 30.5725
lfemur -12.5575 -0.637705 -19.1255
ltibia 26.6966
lfoot -17.2573 2.35741
ltoes -17.7319
2835
root 21.1612 17.7564 -16.7447 181.982 -169.262 -179.887
lowerback 0.533019 -1.65013 1.3662
upperback -11.1358 -2.16145 0.385307
thorax -12.3023 -1.1854 -0.0972311
lowerneck -4.67076 10.1693 16.1856
upperneck 14.668 15.2086 -17.1868
head 7.86094 7.14377 -6.86335
rclavicle -5.46658e-015 1.27222e-014
rhumerus -56.0813 -30.682 -3.43313
rradius 56.9181
rwrist -35.4643
rhand -11.3921 22.204
rfingers 7.12502
rthumb 14.6427 -7.25899
lclavicle -5.46658e-015 1.27222e-014
lhumerus -39.9703 -2.02632 17.0421
lradius 43.8677
lwrist 71.7139
lhand -19.2174 15.8361
lfingers 7.12502
lthumb 7.09526 45.6972
rfemur -6.30988 -5.15522 19.4509
rtibia 24.4801
rfoot -22.7899 0.853129
rtoes 30.5733
lfemur -12.3418 -0.572923 -19.0339
ltibia 26.6847
lfoot -17.351 3.0362
ltoes -18.3909
2836
root 21.1649 17.754 -16.7476 181.894 -168.596 -179.853
lowerback 0.441636 -1.77268 1.14212
upperback -11.1657 -2.3492 0.383383
thorax -12.2735 -1.25582 0.0439482
lowerneck -4.93274 9.92883 16.1089
upperneck 14.7167 14.8062 -17.0268
head 7.83013 6.94271 -6.84237
rclavicle 6.69904e-014 2.72335e-014
rhumerus -55.9381 -31.4755 -4.7238
rradius 54.9039
rwrist -34.4757
rhand -11.8383 21.3101
rfingers 7.12502
rthumb 14.2128 -8.18362
lclavicle 6.69904e-014 2.72335e-014
lhumerus -40.3766 -1.38283 18.7103
lradius 42.4914
lwrist 71.0818
lhand -20.3766 16.3975
lfingers 7.12502
lthumb 5.97625 46.2933
rfemur -6.33498 -5.15897 19.3307
rtibia 24.4944
rfoot -22.565 1.38433
rtoes 30.4494
lfemur -12.1463 -0.518863 -19.0925
ltibia 26.6787
lfoot -17.5312 3.65041
ltoes -18.4463
2837
root 21.1686 17.7521 -16.7488 181.811 -167.941 -179.843
lowerback 0.312458 -1.92563 0.939317
upperback -11.2356 -2.57415 0.412789
thorax -12.2674 -1.34487 0.210484
lowerneck -5.01762 9.7193 16.0756
upperneck 14.6165 14.4392 -16.8189
head 7.72597 6.77581 -6.8115
rclavicle 3.83654e-014 2.3059e-014
rhumerus -55.7446 -32.2276 -5.99253
rradius 52.782
rwrist -33.6651
rhand -12.7507 20.3395
rfingers 7.12502
rthumb 13.3335 -9.2139
lclavicle 3.83654e-014 2.3059e-014
lhumerus -41.0351 -0.576929 20.2789
lradius 41.1892
lwrist 70.5063
lhand -21.3467 16.9002
lfingers 7.12502
lthumb 5.03958 46.8202
rfemur -6.36494 -5.20782 19.2377
rtibia 24.5325
rfoot -22.4544 1.87739
rtoes 29.9278
lfemur -11.9284 -0.544489 -19.1331
ltibia 26.6592
lfoot -17.7071 4.24173
ltoes -17.9583
2838
root 21.172 17.7525 -16.7508 181.802 -167.223 -179.938
lowerback 0.164212 -2.04524 0.841467
upperback -11.381 -2.74769 0.443093
thorax -12.3422 -1.41999 0.315315
lowerneck -4.9523 9.43054 15.9042
upperneck 14.5554 13.9707 -16.4443
head 7.56646 6.5707 -6.72073
rclavicle -1.44119e-014 -8.34896e-015
rhumerus -55.6918 -32.9032 -7.16231
rradius 50.61
rwrist -33.1148
rhand -14.2729 19.6687
rfingers 7.12502
rthumb 11.8659 -9.97509
lclavicle -1.44119e-014 -8.34896e-015
lhumerus -41.5038 0.44181 21.6841
lradius 39.5062
lwrist 69.5251
lhand -22.0238 17.2199
lfingers 7.12502
lthumb 4.38581 47.1545
rfemur -6.47071 -5.1082 19.27
rtibia 24.5767
rfoot -22.4423 2.33249
rtoes 29.5782
lfemur -11.7531 -0.552532 -19.0685
ltibia 26.633
lfoot -17.7636 4.90403
ltoes -17.893
2839
root 21.1773 17.7524 -16.7552 181.737 -166.446 -180.039
lowerback 0.155387 -2.12632 0.706914
upperback -11.4944 -2.867 0.503256
thorax -12.4609 -1.46187 0.471883
lowerneck -5.22782 9.15591 15.6881
upperneck 14.7707 13.5258 -16.1033
head 7.5645 6.35141 -6.61911
rclavicle -1.04362e-014 7.95139e-015
rhumerus -55.6552 -33.6623 -8.21781
rradius 48.3219
rwrist -32.9199
rhand -15.7133 19.0116
rfingers 7.12502
rthumb 10.4767 -10.7074
lclavicle -1.04362e-014 7.95139e-015
lhumerus -41.8333 1.4191 23.2704
lradius 37.6911
lwrist 68.5023
lhand -22.6258 17.4748
lfingers 7.12502
lthumb 3.80444 47.4206
rfemur -6.51901 -4.93612 19.296
rtibia 24.5764
rfoot -22.2972 2.91042
rtoes 30.015
lfemur -11.5494 -0.507658 -19.0082
ltibia 26.6455
lfoot -17.8229 5.71022
ltoes -18.8949
2840
root 21.182 17.7512 -16.7593 181.637 -165.562 -180.187
lowerback 0.10058 -2.21935 0.628374
upperback -11.5269 -2.99368 0.610626
thorax -12.4551 -1.51029 0.644362
lowerneck -5.62052 9.05703 15.6188
upperneck 14.9778 13.3131 -15.8401
head 7.64096 6.24095 -6.53141
rclavicle -3.97569e-014 -1.8487e-014
rhumerus -55.4433 -34.6538 -9.27706
rradius 45.9201
rwrist -33.1171
rhand -16.8813 17.8576
rfingers 7.12502
rthumb 9.34983 -11.9151
lclavicle -3.97569e-014 -1.8487e-014
lhumerus -42.3631 2.40359 24.9785
lradius 36.0324
lwrist 67.5465
lhand -23.2403 17.9221
lfingers 7.12502
lthumb 3.21101 47.8776
rfemur -6.51683 -4.69871 19.3716
rtibia 24.5594
rfoot -22.1055 3.57461
rtoes 30.4615
lfemur -11.275 -0.428038 -18.8988
ltibia 26.6816
lfoot -17.9964 6.60757
ltoes -20.2908
2841
root 21.1865 17.7506 -16.7628 181.624 -164.604 -180.462
lowerback -0.138301 -2.30096 0.686601
upperback -11.5243 -3.09849 0.702993
thorax -12.3022 -1.56504 0.711688
lowerneck -5.87169 9.00615 15.6916
upperneck 14.937 13.1276 -15.5151
head 7.62315 6.16622 -6.44367
rclavicle -6.10269e-014 -1.51076e-014
rhumerus -55.4134 -35.8613 -10.1576
rradius 43.5693
rwrist -33.304
rhand -18.0237 16.0494
rfingers 7.12502
rthumb 8.24742 -13.7696
lclavicle -6.10269e-014 -1.51076e-014
lhumerus -42.8438 3.50185 26.5572
lradius 34.4458
lwrist 66.5607
lhand -24.2763 18.943
lfingers 7.12502
lthumb 2.21054 48.9113
rfemur -6.58552 -4.47996 19.5859
rtibia 24.5554
rfoot -21.9323 4.28628
rtoes 30.7648
lfemur -11.0419 -0.274308 -18.6452
ltibia 26.7209
lfoot -18.2082 7.28988
ltoes -20.2289
2842
root 21.1907 17.7466 -16.7664 181.543 -163.767 -180.605
lowerback -0.347953 -2.41514 0.592864
upperback -11.5302 -3.26206 0.743406
thorax -12.1715 -1.63599 0.813723
lowerneck -6.09596 8.83303 15.5265
upperneck 14.9245 12.7641 -14.9747
head 7.54821 6.00954 -6.26827
rclavicle 2.98177e-015 8.54774e-015
rhumerus -55.7088 -37.2476 -10.5974
rradius 41.1967
rwrist -32.8109
rhand -19.1456 13.9827
rfingers 7.12502
rthumb 7.16465 -15.876
lclavicle 2.98177e-015 8.54774e-015
lhumerus -43.2474 4.70284 28.0823
lradius 32.7989
lwrist 65.596
lhand -25.6624 20.1046
lfingers 7.12502
lthumb 0.871792 50.0825
rfemur -6.61647 -4.46843 19.6543
rtibia 24.5854
rfoot -21.8092 4.95981
rtoes 30.5806
lfemur -10.7834 0.0170774 -18.5181
ltibia 26.7312
lfoot -18.3435 7.65301
ltoes -19.0893
